<?xml version="1.0" encoding="UTF-8" standalone="no"?>
<!-- Created with Inkscape (http://www.inkscape.org/) -->

<svg
   version="1.1"
   id="svg2"
   width="1038.0267"
   height="346.01334"
   viewBox="0 0 1038.0267 346.01334"
   sodipodi:docname="berlinovo_Wortmarke.eps"
   xmlns:inkscape="http://www.inkscape.org/namespaces/inkscape"
   xmlns:sodipodi="http://sodipodi.sourceforge.net/DTD/sodipodi-0.dtd"
   xmlns="http://www.w3.org/2000/svg"
   xmlns:svg="http://www.w3.org/2000/svg">
  <defs
     id="defs6" />
  <sodipodi:namedview
     id="namedview4"
     pagecolor="#ffffff"
     bordercolor="#000000"
     borderopacity="0.25"
     inkscape:showpageshadow="2"
     inkscape:pageopacity="0.0"
     inkscape:pagecheckerboard="0"
     inkscape:deskcolor="#d1d1d1" />
  <g
     id="g8"
     inkscape:groupmode="layer"
     inkscape:label="ink_ext_XXXXXX"
     transform="matrix(1.3333333,0,0,-1.3333333,0,346.01333)">
    <g
       id="g10"
       transform="scale(0.1)">
      <path
         d="m 1117.07,733.309 c 205.43,0 339.54,156.941 339.54,385.201 v 11.41 c 0,232.55 -144.1,375.22 -339.54,375.22 -108.43,0 -209.722,-65.63 -252.523,-138.39 v 482.21 H 746.133 V 746.148 H 864.547 V 868.852 C 907.348,794.66 995.801,733.309 1117.07,733.309 Z m -11.42,98.441 c -145.517,0 -245.38,89.879 -245.38,281.05 v 11.42 c 0,191.17 105.57,282.48 243.95,282.48 125.55,0 229.7,-94.16 229.7,-282.48 v -11.42 c 0,-181.179 -79.9,-281.05 -228.27,-281.05 z m 874.48,-98.441 c 168.34,0 292.46,78.472 318.14,228.273 h -118.41 c -15.69,-87.031 -82.75,-129.832 -198.31,-129.832 -152.65,0 -233.97,94.16 -239.67,263.93 h 562.1 v 38.52 c 0,266.79 -162.64,370.94 -335.27,370.94 -205.43,0 -349.53,-156.94 -349.53,-382.35 v -11.41 c 0,-229.689 149.8,-378.071 360.95,-378.071 z m 202.58,457.961 h -436.55 c 19.97,132.68 101.29,215.43 222.55,215.43 122.7,0 202.59,-61.35 214,-215.43 z m 308.16,301.03 V 746.148 h 118.41 V 1155.6 c 0,184.04 95.59,231.12 245.39,238.26 v 111.28 c -134.11,-4.28 -198.31,-62.78 -245.39,-146.95 v 134.11 z m 529.29,356.66 V 746.148 h 118.41 V 1848.96 Z M 3395.37,1492.3 V 746.148 h 118.41 V 1492.3 Z m 58.49,155.5 c 42.8,0 78.47,35.67 78.47,78.47 0,42.8 -35.67,78.46 -78.47,78.46 -42.8,0 -78.46,-35.66 -78.46,-78.46 0,-42.8 35.66,-78.47 78.46,-78.47"
         style="fill:#040606;fill-opacity:1;fill-rule:nonzero;stroke:none"
         id="path12" />
      <path
         d="m 6827.9,1115.66 c 0,-142.672 -65.62,-228.269 -182.61,-228.269 -116.98,0 -182.61,85.597 -182.61,228.269 v 11.41 c 0,142.67 68.48,225.41 182.61,225.41 114.13,0 182.61,-82.74 182.61,-225.41 z m -182.61,393.75 c -223.99,0 -393.76,-152.65 -393.76,-386.62 v -11.41 c 0,-232.548 169.77,-380.919 393.76,-380.919 223.99,0 393.76,148.371 393.76,380.919 v 11.41 c 0,233.97 -169.77,386.62 -393.76,386.62"
         style="fill:#856bbc;fill-opacity:1;fill-rule:nonzero;stroke:none"
         id="path14" />
      <path
         d="m 5441.19,1492.3 272.5,-746.152 h 232.54 l 271.06,746.152 h -199.73 l -176.9,-533.57 -178.34,533.57 h -221.13"
         style="fill:#856bbc;fill-opacity:1;fill-rule:nonzero;stroke:none"
         id="path16" />
      <path
         d="m 5195.81,1115.66 c 0,-142.672 -65.63,-228.269 -182.61,-228.269 -116.99,0 -182.61,85.597 -182.61,228.269 v 11.41 c 0,142.67 68.47,225.41 182.61,225.41 114.13,0 182.61,-82.74 182.61,-225.41 z m -182.61,393.75 c -223.99,0 -393.76,-152.65 -393.76,-386.62 v -11.41 c 0,-232.548 169.77,-380.919 393.76,-380.919 223.98,0 393.75,148.371 393.75,380.919 v 11.41 c 0,233.97 -169.77,386.62 -393.75,386.62"
         style="fill:#856bbc;fill-opacity:1;fill-rule:nonzero;stroke:none"
         id="path18" />
      <path
         d="M 3770.58,1492.3 V 746.148 h 206.87 V 1177 c 0,109.86 67.05,164.07 155.5,164.07 91.31,0 131.25,-48.51 131.25,-149.8 V 746.148 h 206.87 v 475.082 c 0,199.73 -104.15,288.19 -251.09,288.19 -124.13,0 -205.44,-61.35 -242.53,-135.54 v 118.42 h -206.87"
         style="fill:#856bbc;fill-opacity:1;fill-rule:nonzero;stroke:none"
         id="path20" />
    </g>
  </g>
</svg>
