<?xml version="1.0" encoding="UTF-8" standalone="no"?>
<svg
   xmlns:svg="http://www.w3.org/2000/svg"
   xmlns="http://www.w3.org/2000/svg"
   version="1.1"
   width="644.41785"
   height="206.44118"
   id="svg3263">
  <defs
     id="defs3265">
    <linearGradient
       x1="0.112396"
       y1="0"
       x2="1"
       y2="0"
       id="linearGradient228"
       gradientUnits="userSpaceOnUse"
       gradientTransform="matrix(-170.90336,-34.087798,38.904426,-195.05216,268.34253,672.55014)"
       spreadMethod="pad">
      <stop
         id="stop230"
         style="stop-color:#0a5c9d;stop-opacity:1"
         offset="0" />
      <stop
         id="stop232"
         style="stop-color:#00a85a;stop-opacity:1"
         offset="1" />
    </linearGradient>
    <linearGradient
       x1="0.230331"
       y1="0"
       x2="0.71348602"
       y2="0"
       id="linearGradient248"
       gradientUnits="userSpaceOnUse"
       gradientTransform="matrix(99.456145,89.550824,107.76311,-119.68301,91.390898,588.21995)"
       spreadMethod="pad">
      <stop
         id="stop250"
         style="stop-color:#0a5c9d;stop-opacity:1"
         offset="0" />
      <stop
         id="stop252"
         style="stop-color:#00b0f0;stop-opacity:1"
         offset="1" />
    </linearGradient>
  </defs>
  <g
     transform="translate(-114.9339,-466.28406)"
     id="layer1">
    <path
       d="m 629.61139,593.61188 c -2.01318,3.86741 -5.26252,3.86741 -7.74661,3.86741 -3.40827,0 -6.50456,-0.14692 -8.51774,-3.55543 -4.02635,-6.96959 -15.4991,-48.95785 -17.50639,-58.71175 -0.1587,-0.77702 -0.4064,-1.86013 -0.45914,-2.47232 -0.39463,-4.01458 2.46643,-6.97548 6.96959,-6.97548 4.01458,0 6.19846,1.69531 6.81065,4.64443 3.56721,15.79931 7.28158,31.91061 12.70303,47.09184 4.64443,-14.25117 10.99594,-37.49099 13.47415,-46.32071 0.93006,-3.24934 3.57309,-4.79748 7.90554,-4.79748 4.33834,0 7.27569,1.54814 7.90554,4.79748 4.33834,15.02818 8.35881,31.29253 13.47416,45.85568 5.10946,-16.26434 12.2321,-45.69674 12.39692,-46.47965 0.61808,-2.93735 2.93147,-4.79159 6.97548,-4.79159 4.49139,0 7.3581,3.13161 6.81066,7.12853 -0.0942,0.61219 -0.31175,1.54225 -0.4648,2.31927 -2.01317,9.7539 -13.17394,51.74216 -17.20029,58.71175 -1.69531,2.7843 -5.10947,3.55543 -8.51774,3.55543 -2.47821,0 -5.73343,0 -7.74072,-3.86741 -2.178,-4.02636 -8.67667,-24.01096 -13.63897,-41.98238 -4.63855,15.64627 -11.46098,37.95602 -13.63309,41.98238 M 372.49875,540.9308 c -3.38472,-1.53637 -8.0115,-3.54366 -13.25046,-3.54366 -11.40211,0 -18.80142,9.09461 -18.80142,23.4223 0,11.7141 5.85705,24.19344 19.26645,24.19344 5.08592,0 10.16595,-2.3075 12.78543,-3.53778 l 0,-40.5343 z m 1.8307,-49.15211 c 1.45396,-0.94772 3.18458,-1.50105 5.04471,-1.50105 1.86602,0 3.59664,0.55333 5.0506,1.50105 1.13609,0.6534 1.94254,2.07205 1.94254,3.36707 l 0,8.55306 0,81.92802 -0.005,0.005 0,8.09391 c 0,2.32516 -1.57758,3.76146 -3.44359,3.76146 l -5.02705,0 c -2.04261,0 -3.69671,-1.03013 -4.2265,-2.97267 -3.22579,1.70708 -8.2705,3.89685 -13.95095,3.89685 -19.7256,0 -33.60003,-15.09882 -33.60003,-37.4439 0,-22.03898 12.95025,-36.98475 33.13499,-36.98475 6.01599,0 9.86574,1.23027 13.25047,2.92558 l -0.005,-23.00436 0,-8.75909 c 0,-1.29502 0.7417,-2.71366 1.8307,-3.36706 l 0.005,0 z M 507.899,539.67934 c -1.85424,-0.77113 -6.32208,-2.15446 -12.94437,-2.15446 -12.17913,0 -19.1134,10.01291 -19.1134,23.57536 0,14.48074 7.24037,24.03449 18.49532,24.03449 5.23896,0 10.47793,-2.3075 13.56245,-3.69671 l 0,-41.75868 z m -32.25791,73.46326 c 1.89544,0.57099 4.05578,0.96539 6.36328,0.96539 10.01879,0 21.73877,-4.47373 25.42959,-19.4195 -2.16033,1.23027 -6.62229,3.85564 -13.09741,3.85564 -19.4195,0 -32.82301,-14.80449 -32.82301,-37.44389 0,-21.4209 13.09741,-36.98476 33.44109,-36.98476 10.63098,0 20.49083,4.31479 23.41641,6.01599 1.07723,0.61219 3.3965,2.76664 3.3965,6.46335 l 0,51.31833 c 0,29.11453 -21.73288,39.59835 -39.76317,39.59835 -3.93805,0 -7.54647,-0.59453 -10.66041,-1.53637 -4.0499,-1.20673 -7.08732,-2.69601 -9.83042,-4.27947 -2.178,-1.20084 -2.92558,-3.19636 -1.94843,-5.20954 l 2.21332,-4.57968 c 0.97127,-1.82481 2.63714,-2.99033 5.22719,-1.94254 2.89026,1.21262 5.63336,2.30162 8.63547,3.1787 m 99.95299,-67.14764 c 0,-3.39061 -4.16174,-8.47064 -12.79721,-8.47064 -10.31311,0 -16.78824,7.08732 -18.3305,18.79553 22.18615,-0.45915 31.12771,-3.84976 31.12771,-10.32489 m 8.11746,47.1978 c -3.89097,1.88956 -12.26743,5.35081 -21.67991,5.35081 -18.94858,0 -32.05188,-15.09882 -32.05188,-37.1378 0,-22.34508 12.63238,-37.29085 32.81712,-37.29085 17.27093,0 27.278,12.32629 27.278,21.88004 0,18.03029 -17.56531,22.49813 -45.14346,23.11621 2.0014,8.78263 7.69951,16.023 17.10022,16.023 7.24037,0 14.41599,-3.84976 16.72938,-4.77394 0.0768,-0.0471 0.1587,-0.0824 0.24111,-0.11773 0.81822,-0.37673 1.63644,-0.75935 2.46054,-1.15375 2.60183,-1.20673 4.36189,-0.0942 5.45682,1.71886 l 2.50764,4.58556 c 1.11843,2.00729 0.44737,4.10877 -1.71885,5.445 -1.2421,0.80644 -2.5489,1.59523 -3.99697,2.35459 m -143.57181,-47.1978 c 0,-3.39061 -4.16174,-8.47064 -12.79132,-8.47064 -10.32488,0 -16.79413,7.08732 -18.33638,18.79553 22.19203,-0.45915 31.1277,-3.84976 31.1277,-10.32489 m 8.12334,47.1978 c -3.90273,1.88956 -12.27331,5.35081 -21.6799,5.35081 -18.95447,0 -32.05777,-15.09882 -32.05777,-37.1378 0,-22.34508 12.64416,-37.29085 32.82301,-37.29085 17.25916,0 27.27206,12.32629 27.27206,21.88004 0,18.03029 -17.56525,22.49813 -45.14341,23.11621 2.0014,8.78263 7.7054,16.023 17.10611,16.023 7.24037,0 14.4101,-3.84976 16.72349,-4.77394 0.0763,-0.0471 0.1587,-0.0824 0.24111,-0.11773 0.81233,-0.37673 1.63644,-0.75935 2.47232,-1.15375 2.59594,-1.20673 4.36188,-0.0942 5.43911,1.71886 l 2.51941,4.58556 c 1.11843,2.00729 0.45349,4.10877 -1.73062,5.445 -1.24205,0.80644 -2.54296,1.59523 -3.98515,2.35459 m 246.13844,-31.78817 c 0,-22.34508 13.09153,-37.29085 32.046,-37.29085 18.8073,0 31.90472,14.94577 31.90472,37.29085 0,22.80422 -12.17913,37.1378 -31.90472,37.1378 -18.95447,0 -32.046,-15.09882 -32.046,-37.1378 m 49.61126,0 c 0,-14.48074 -6.77534,-23.88145 -17.56526,-23.88145 -10.93119,0 -17.70653,9.40071 -17.70653,23.88145 0,14.02748 6.77534,23.7284 17.70653,23.7284 11.10779,0 17.56526,-9.24177 17.56526,-23.7284"
       id="path134"
       style="fill:#0a5c9d;fill-opacity:1;fill-rule:nonzero;stroke:none" />
    <path
       d="m 758.32633,669.75759 c 0,1.13609 -0.82411,1.96608 -1.96608,1.96608 -1.12432,0 -1.94843,-0.82999 -1.94843,-1.96608 l 0,-1.38921 c 0,-1.12432 0.82411,-1.94842 1.94843,-1.94842 1.14197,0 1.96608,0.8241 1.96608,1.94842 l 0,1.38921 z m -13.91856,-10.99298 c 0,-3.3965 -1.0007,-4.2677 -4.0911,-4.2677 -1.86018,0 -3.12572,0.6122 -3.78505,0.91829 l 0,14.08635 c 0,1.13021 -0.82406,1.9602 -1.94838,1.9602 -1.13614,0 -1.9602,-0.82999 -1.9602,-1.9602 l 0,-16.61164 c 0,-1.12432 0.6946,-1.90722 1.82481,-1.90722 0.8712,0 1.38921,0.3885 1.77772,1.12431 1.35384,-0.8241 2.96085,-1.38921 4.95641,-1.38921 4.92105,0 7.13437,2.34871 7.13437,7.43463 l 0,11.34913 c 0,1.13021 -0.81818,1.9602 -1.95427,1.9602 -1.12431,0 -1.95431,-0.82999 -1.95431,-1.9602 l 0,-10.73694 z m -24.57016,9.17467 c 2.03672,0 4.43251,-1.21262 5.0918,-1.47751 0.34142,-0.18224 0.7829,-0.21756 0.99482,-0.21756 1.08899,0 1.9131,0.9124 1.9131,1.9131 0,0.8712 -0.52389,1.34801 -1.00075,1.65411 -0.17659,0.1295 -3.56716,1.9131 -6.99897,1.9131 -5.35081,0 -9.04164,-4.26181 -9.04164,-10.48382 0,-6.30442 3.56132,-10.52503 9.25939,-10.52503 4.87405,0 7.69956,3.47891 7.69956,6.18081 0,5.08592 -4.95642,6.34562 -12.73834,6.52222 0.55333,2.47821 2.16622,4.52081 4.82103,4.52081 m 3.82621,-11.04303 c 0,-0.96538 -1.17141,-2.3958 -3.60846,-2.3958 -2.90788,0 -4.73857,2.0014 -5.17417,5.30372 6.25733,-0.1295 8.78263,-1.089 8.78263,-2.90792 m -32.60168,-13.43883 c 0,-1.13021 0.8241,-1.91311 1.95431,-1.91311 1.13609,0 1.96608,0.7829 1.96608,1.91311 l 0,8.08802 c 0.51801,-0.26466 1.64822,-0.83 3.72614,-0.83 5.704,0 9.35362,4.17352 9.35362,10.39553 0,6.35151 -3.90862,10.61332 -9.44191,10.61332 -2.03084,0 -5.69811,-0.74758 -7.02846,-2.26629 -0.3061,-0.34142 -0.52978,-0.78291 -0.52978,-1.20673 l 0,-24.79385 z m 3.92039,23.78726 c 1.16553,0.47681 2.42523,0.6946 3.63785,0.6946 3.70259,0 5.3979,-3.526 5.3979,-6.82831 0,-4.04401 -2.0897,-6.61052 -5.30961,-6.61052 -1.64821,0 -3.20813,0.7417 -3.72614,1.0007 l 0,11.74353 z m -15.95236,0.6946 c 2.03672,0 4.43252,-1.21261 5.08592,-1.4775 0.34754,-0.18225 0.7829,-0.21757 1.0007,-0.21757 1.089,0 1.90722,0.91241 1.90722,1.91311 0,0.8712 -0.52389,1.348 -1.0007,1.6541 -0.17047,0.1295 -3.56132,1.91311 -6.99314,1.91311 -5.35669,0 -9.0534,-4.26181 -9.0534,-10.48382 0,-6.30442 3.57309,-10.52503 9.26532,-10.52503 4.874,0 7.69363,3.47891 7.69363,6.1808 0,5.08592 -4.95053,6.34563 -12.73246,6.52222 0.55922,2.47821 2.16622,4.52082 4.82691,4.52082 m 3.82033,-11.04304 c 0,-0.96538 -1.17141,-2.39579 -3.60841,-2.39579 -2.90792,0 -4.73273,2.0014 -5.18011,5.30372 6.2691,-0.12951 8.78852,-1.089 8.78852,-2.90793 m -28.00434,14.56372 c -1.13609,0 -1.9602,-0.7829 -1.9602,-1.91311 l 0,-24.22286 c 0,-1.12432 0.82411,-1.91311 1.9602,-1.91311 1.1302,0 1.95431,0.78879 1.95431,1.91311 l 0,22.35096 9.78333,0 c 1.13609,0 2.0014,0.74759 2.0014,1.8719 0,1.13021 -0.86531,1.91311 -2.0014,1.91311 l -11.73764,0 z m -29.59195,-18.57067 c 0,-1.12431 0.83,-1.90722 1.9602,-1.90722 1.12432,0 1.86601,0.78291 1.86601,1.90722 l 0,0.4827 c 0.56511,-0.8712 2.08971,-2.65481 4.60912,-2.65481 1.04191,0 2.57239,0.12951 3.3082,1.0478 0.25288,0.29997 0.38239,0.64751 0.38239,1.08311 0,1.089 -0.77702,1.95431 -1.86013,1.95431 -0.5239,0 -1.26559,-0.3061 -1.8307,-0.3061 -1.4363,0 -4.52081,0.83 -4.52081,7.44051 l 0,7.57002 c 0,1.12431 -0.83,1.95431 -1.95431,1.95431 -1.13021,0 -1.9602,-0.83 -1.9602,-1.95431 l 0,-16.61754 z m -17.11788,16.61462 c 0,1.12431 -0.83588,1.95431 -1.9602,1.95431 -1.13609,0 -1.9602,-0.83 -1.9602,-1.95431 l 0,-26.00647 c 0,-1.13021 0.82411,-1.95431 1.9602,-1.95431 1.12432,0 1.9602,0.8241 1.9602,1.95431 l 0,8.43532 c 0.60631,-0.3885 2.26041,-1.2185 4.64443,-1.2185 4.91521,0 7.13442,2.3546 7.13442,7.44051 l 0,11.34914 c 0,1.12431 -0.82411,1.95431 -1.96609,1.95431 -1.11843,0 -1.94842,-0.83 -1.94842,-1.95431 l 0,-10.73694 c 0,-3.3965 -1.0007,-4.2677 -4.08522,-4.2677 -1.60701,0 -2.90792,0.48269 -3.77912,0.91829 l 0,14.08635 z m -15.94765,-1.56463 c 2.04261,0 4.42663,-1.21261 5.08003,-1.47751 0.35319,-0.18224 0.7829,-0.21756 1.00659,-0.21756 1.08311,0 1.90722,0.9124 1.90722,1.91311 0,0.87119 -0.5239,1.348 -1.0007,1.6541 -0.17048,0.1295 -3.56132,1.9131 -6.99314,1.9131 -5.3567,0 -9.04752,-4.26181 -9.04752,-10.48382 0,-6.30442 3.56132,-10.52502 9.25943,-10.52502 4.86812,0 7.69363,3.47891 7.69363,6.1808 0,5.08592 -4.95053,6.34562 -12.73245,6.52222 0.55921,2.47821 2.16622,4.52082 4.82691,4.52082 m 3.82032,-11.04304 c 0,-0.96538 -1.17141,-2.3958 -3.60841,-2.3958 -2.90792,0 -4.7445,2.00141 -5.17421,5.30372 6.25732,-0.1295 8.78262,-1.089 8.78262,-2.90792 m -30.54729,13.86793 c -0.82411,0 -1.78949,-0.6946 -2.0897,-1.73651 -0.6534,-2.17211 -3.6143,-12.56763 -5.34493,-16.87654 l -0.7829,-1.9131 c 0,0 -1.35389,13.00323 -2.0485,19.49013 -0.12385,1.03602 -0.87119,1.73063 -2.0426,1.73063 -1.17141,0 -1.82481,-0.77702 -1.82481,-2.03672 l 2.69601,-24.35826 c 0.0885,-0.86531 0.78878,-1.64821 1.94842,-1.64821 l 0.44737,0 c 0.99482,0 1.68942,0.34141 2.29573,1.21261 1.57758,2.21921 4.874,12.43814 6.88129,18.82497 2.56062,-8.29405 5.16833,-16.00534 6.73414,-18.64249 0.55921,-0.96538 1.43041,-1.39509 2.39579,-1.39509 l 0.4827,0 c 1.0007,0 1.86601,0.64751 1.94842,1.64821 l 2.69601,24.22287 c 0,1.089 -0.5651,2.17211 -1.86602,2.17211 -1.1714,0 -1.87778,-0.5651 -1.99551,-1.73063 0,0 -1.35389,-13.00912 -2.0485,-19.49013 l -0.87708,2.47821 c -2.178,6.17491 -4.82692,14.92222 -5.25663,16.31143 -0.3061,1.04191 -1.25971,1.73651 -2.0897,1.73651 l -0.259,0 z m -35.51549,-1.00658 c 0,1.13609 -0.83,1.96608 -1.9602,1.96608 -1.12432,0 -1.9602,-0.82999 -1.9602,-1.96608 l 0,-1.38921 c 0,-1.12432 0.83588,-1.94843 1.9602,-1.94843 1.1302,0 1.9602,0.82411 1.9602,1.94843 l 0,1.38921 z m -19.17815,-14.99697 -1.51871,0 c -1.1361,0 -1.9602,-0.7829 -1.9602,-1.9131 0,-1.13021 0.8241,-1.86602 1.9602,-1.86602 l 1.51871,0 0,-3.77912 c 0,-1.13609 0.8241,-1.96608 1.96608,-1.96608 1.11843,0 1.94254,0.82999 1.94254,1.96608 l 0,3.77912 4.3972,0 c 1.13609,0 1.9602,0.73581 1.9602,1.86602 0,1.1302 -0.82411,1.9131 -1.9602,1.9131 l -4.3972,0 0,8.95923 c 0,3.64961 1.87779,4.2206 3.35529,4.2206 0.82411,0 1.47751,-0.29997 1.73651,-0.48269 0.21757,-0.1295 0.47681,-0.21191 0.86532,-0.21191 1.0007,0 1.91899,0.64751 1.91899,1.8719 0,0.6946 -0.4356,1.43041 -0.95361,1.73062 -0.4356,0.22369 -1.8307,0.8712 -3.3965,0.8712 -3.69082,0 -7.43462,-0.99481 -7.43462,-7.99972 l 0,-8.95923 z m -10.43791,-11.30321 c 0,-1.13021 0.82999,-1.91311 1.95431,-1.91311 1.14198,0 1.9602,0.7829 1.9602,1.91311 l 0,24.12868 c 0.9124,0 1.64821,0.87708 1.64821,1.91899 0,1.12432 -0.8241,1.95431 -1.95431,1.95431 -0.4768,0 -1.6953,-0.21756 -2.60182,-1.2185 -0.7417,0.4356 -2.5253,1.48339 -4.62089,1.48339 -5.55683,0 -9.47134,-4.26181 -9.47134,-10.57212 0,-6.21612 3.64961,-10.43672 9.34773,-10.43672 1.6953,0 2.77841,0.35318 3.73791,0.82999 l 0,-8.08802 z m 0,12.04373 c -0.9595,-0.44125 -2.26629,-1.0007 -3.73791,-1.0007 -3.21402,0 -5.30961,2.56651 -5.30961,6.61052 0,3.30231 1.65999,6.82832 5.43322,6.82832 1.44808,0 2.87849,-0.6534 3.6143,-1.00071 l 0,-11.43743 z m -16.94482,12.08377 c 0.9124,0 1.60701,1.0007 1.60701,1.9602 0,1.2185 -0.81822,1.9131 -1.91311,1.9131 -0.35931,0 -1.6953,-0.0824 -2.60771,-1.2185 -0.74169,0.44125 -2.5253,1.4834 -5.00351,1.4834 -3.56132,0 -7.46994,-1.99552 -7.46994,-6.52222 0,-4.26182 3.03743,-6.39861 8.72965,-6.39861 l 2.74899,0 0,-1.60701 c 0,-1.089 -0.92418,-2.696 -3.3082,-2.696 -2.0897,0 -3.44359,0.65928 -4.26182,1.08899 -0.39463,0.21757 -0.6946,0.21757 -1.0419,0.21757 -1.13021,0 -1.78361,-0.91829 -1.78361,-1.8719 0,-0.47092 0.12951,-1.08311 0.72993,-1.51871 1.089,-0.7417 3.7438,-1.7012 6.3574,-1.7012 5.17421,0 7.21682,3.7026 7.21682,6.48102 l 0,10.38963 z m -3.90862,-5.08592 -2.74899,0 c -3.17281,0 -4.69152,0.8712 -4.69152,2.7019 0,1.77771 1.7836,2.73721 3.43181,2.73721 1.8307,0 3.52601,-0.7829 4.0087,-1.0007 l 0,-4.43841 z m -25.44434,-7.73837 -1.52459,0 c -1.13021,0 -1.9602,-0.7829 -1.9602,-1.9131 0,-1.13021 0.82999,-1.86602 1.9602,-1.86602 l 1.52459,0 0,-3.77912 c 0,-1.13609 0.83,-1.96608 1.95432,-1.96608 1.1302,0 1.96019,0.82999 1.96019,1.96608 l 0,3.77912 4.39132,0 c 1.1302,0 1.9602,0.73581 1.9602,1.86602 0,1.1302 -0.83,1.9131 -1.9602,1.9131 l -4.39132,0 0,8.95923 c 0,3.64961 1.8719,4.2206 3.34941,4.2206 0.82411,0 1.47162,-0.29997 1.7424,-0.48269 0.21191,-0.1295 0.47092,-0.21191 0.86531,-0.21191 1.0007,0 1.91311,0.64751 1.91311,1.8719 0,0.6946 -0.44125,1.43041 -0.95361,1.73062 -0.44125,0.22369 -1.82481,0.8712 -3.3965,0.8712 -3.69671,0 -7.43463,-0.99481 -7.43463,-7.99972 l 0,-8.95923 z m -14.74798,16.9607 c -3.25523,0 -5.21542,-1.2656 -7.25803,-2.78431 -0.51801,-0.38851 -0.82411,-1.0007 -0.82411,-1.68942 0,-1.089 0.91241,-1.83069 1.8719,-1.83069 0.30045,0 0.7829,0.0424 1.34801,0.4768 0.95361,0.77702 2.60771,2.04261 4.86223,2.04261 3.04919,0 4.9623,-1.82481 4.9623,-4.38543 0,-5.3096 -12.39104,-4.7445 -12.39104,-13.05032 0,-4.60323 4.08522,-7.35222 8.30582,-7.35222 3.04331,0 5.26252,1.3951 6.65173,2.34871 0.52389,0.40028 0.7829,0.95361 0.7829,1.6541 0,1.089 -0.91241,1.9131 -1.8719,1.9131 -0.38851,0 -0.8712,-0.1295 -1.17141,-0.3885 -0.8712,-0.74759 -2.437,-1.7424 -4.39132,-1.7424 -2.2604,0 -4.26181,1.51871 -4.26181,3.56721 0,5.26251 12.39693,4.39131 12.39693,13.05032 0,4.90933 -3.65551,8.17044 -9.0122,8.17044 M 403.8072,652.89 c 0,-1.12432 0.8241,-1.90722 1.96019,-1.90722 1.13021,0 1.86602,0.7829 1.86602,1.90722 l 0,0.48269 c 0.5651,-0.8712 2.0897,-2.6548 4.60911,-2.6548 1.0478,0 2.56651,0.1295 3.3082,1.04779 0.25901,0.29998 0.38851,0.64751 0.38851,1.08311 0,1.089 -0.77701,1.95432 -1.86601,1.95432 -0.5239,0 -1.2656,-0.3061 -1.8307,-0.3061 -1.4363,0 -4.52081,0.82999 -4.52081,7.44051 l 0,7.57001 c 0,1.12432 -0.82411,1.95431 -1.95432,1.95431 -1.13609,0 -1.96019,-0.82999 -1.96019,-1.95431 l 0,-16.61753 z m -17.12203,16.61461 c 0,1.12432 -0.82999,1.95431 -1.95431,1.95431 -1.13021,0 -1.9602,-0.82999 -1.9602,-1.95431 l 0,-26.00647 c 0,-1.1302 0.82999,-1.95431 1.9602,-1.95431 1.12432,0 1.95431,0.82411 1.95431,1.95431 l 0,8.43533 c 0.60631,-0.38851 2.26041,-1.2185 4.6562,-1.2185 4.90933,0 7.12853,2.35459 7.12853,7.44051 l 0,11.34913 c 0,1.12432 -0.82999,1.95431 -1.95431,1.95431 -1.1302,0 -1.9602,-0.82999 -1.9602,-1.95431 l 0,-10.73694 c 0,-3.3965 -1.0007,-4.26769 -4.0911,-4.26769 -1.60701,0 -2.90792,0.48269 -3.77912,0.91829 l 0,14.08634 z m -15.95118,-1.56462 c 2.04849,0 4.4384,-1.21262 5.08591,-1.47751 0.35319,-0.18225 0.78879,-0.21756 1.00659,-0.21756 1.08312,0 1.91311,0.9124 1.91311,1.9131 0,0.8712 -0.5239,1.348 -1.00659,1.6541 -0.17047,0.1295 -3.56132,1.91311 -6.99902,1.91311 -5.34493,0 -9.04164,-4.26181 -9.04164,-10.48382 0,-6.30442 3.56721,-10.52503 9.26532,-10.52503 4.86223,0 7.69363,3.47891 7.69363,6.18081 0,5.08591 -4.9623,6.34562 -12.74423,6.52221 0.5651,2.47821 2.178,4.52082 4.82692,4.52082 m 3.82621,-11.04303 c 0,-0.96539 -1.17141,-2.3958 -3.60253,-2.3958 -2.91969,0 -4.7445,2.0014 -5.17421,5.30372 6.25732,-0.12951 8.77674,-1.089 8.77674,-2.90792 m -30.54495,13.86793 c -0.8241,0 -1.78949,-0.69461 -2.0897,-1.73651 -0.6534,-2.17211 -3.60841,-12.56764 -5.34492,-16.87654 l -0.7829,-1.91311 c 0,0 -1.35389,13.00324 -2.04261,19.49014 -0.13562,1.03602 -0.8712,1.73062 -2.04261,1.73062 -1.18318,0 -1.83069,-0.77701 -1.83069,-2.03672 l 2.696,-24.35825 c 0.0824,-0.86531 0.78291,-1.64822 1.9602,-1.64822 l 0.42995,0 c 1.0007,0 1.69531,0.34142 2.3075,1.21262 1.55992,2.2192 4.86812,12.43813 6.86952,18.82496 2.56651,-8.29405 5.17422,-16.00534 6.74002,-18.64248 0.5651,-0.96538 1.4363,-1.3951 2.3958,-1.3951 l 0.47092,0 c 1.0007,0 1.87778,0.64752 1.9602,1.64822 l 2.696,24.22286 c 0,1.089 -0.57099,2.17211 -1.8719,2.17211 -1.17729,0 -1.86601,-0.5651 -1.99551,-1.73062 0,0 -1.34801,-13.00912 -2.0485,-19.49014 l -0.86531,2.47821 c -2.178,6.17492 -4.8328,14.92223 -5.26251,16.31144 -0.3061,1.0419 -1.25971,1.73651 -2.08971,1.73651 l -0.259,0 z"
       id="path214"
       style="fill:#00a85a;fill-opacity:1;fill-rule:nonzero;stroke:none" />
    <path
       d="m 115.93479,554.41084 c 0,48.11609 38.99793,87.11401 87.1199,87.11401 l 0,0 c 48.11608,0 87.1199,-38.99792 87.1199,-87.11401 l 0,0 c 0,-5.78052 -0.55922,-11.408 -1.63055,-16.87065 l 0,0 c -0.96539,-5.83939 -6.04542,-10.29545 -12.16147,-10.29545 l 0,0 c -6.81066,0 -12.33218,5.51563 -12.33218,12.32628 l 0,0 c 0,0.7005 0.0589,1.37744 0.17048,2.05439 l 0,0 0,-0.005 c 0.36496,1.99551 0.54744,4.04989 0.64751,6.12194 l 0,0 c 8.98277,35.11873 -10.43084,72.76866 -44.64895,85.31863 l 0,0 c -35.36009,12.96227 -73.12185,-5.76851 -84.36503,-41.84086 l 0,0 c -11.2314,-36.07235 8.31171,-75.82963 43.67179,-88.79166 l 0,0 c 15.21067,-5.58038 30.8687,-5.27429 44.67839,-0.25335 l 0,0 c 0.0706,0 0.13562,0.009 0.21191,0.009 l 0,0 c 8.73553,0 15.81697,-7.08732 15.81697,-15.81697 l 0,0 c 0,-7.09909 -4.67387,-13.10919 -11.11367,-15.11059 l 0,0 0.005,-0.005 c -8.22907,-2.57828 -16.98226,-3.96749 -26.07099,-3.96749 l 0,0 c -48.12197,0 -87.1199,39.0097 -87.1199,87.12579"
       id="path234"
       style="fill:url(#linearGradient228);stroke:none" />
    <path
       d="m 179.52643,502.42734 c -35.36009,12.96203 -54.9032,52.71931 -43.67179,88.79166 l 0,0 c 11.24317,36.07235 49.00494,54.80313 84.36502,41.8411 l 0,0 c 34.21811,-12.54998 53.63172,-50.1999 44.64895,-85.31864 l 0,0 c 0.033,0.78879 0.10031,1.5658 0.10031,2.35459 l 0,0 c 0,26.72462 -21.66813,48.38098 -48.38687,48.38098 l 0,0 c -26.72461,0 -48.39275,-21.65636 -48.39275,-48.38098 l 0,0 c 0,-26.72462 21.66814,-48.38686 48.39275,-48.38686 l 0,0 c 1.9602,0 3.88508,0.11773 5.7923,0.34141 l 0,0 0.005,0.005 c 0.60042,0.0768 1.20673,0.10596 1.82481,0.11773 l 0,0 c -6.92274,-2.51353 -14.31027,-3.84976 -21.86851,-3.84976 l 0,0 c -7.52292,0 -15.22244,1.31857 -22.81011,4.10288"
       id="path254"
       style="fill:url(#linearGradient248);stroke:none" />
  </g>
</svg>
