<?xml version="1.0" encoding="utf-8"?>
<svg version="1.1" xmlns="http://www.w3.org/2000/svg" viewBox="0 0 211.1 62.7">
    <style type="text/css">
        .st0{fill:none;}
        .st1{fill:#E4002B;}
    </style>
    <rect class="st0" x="39.1" y="9.1" width="134" height="44.7"/>
    <path class="st1" d="M82.9,31.3c0-3-1.6-4.7-4.1-4.7c-2.5,0-4.1,1.7-4.1,4.7s1.5,4.7,4.1,4.7C81.4,36,82.9,34.3,82.9,31.3 M124,31.3
        c0-3-1.6-4.7-4.1-4.7s-4.1,1.7-4.1,4.7s1.5,4.7,4.1,4.7C122.5,36,124,34.3,124,31.3 M159.5,39.3h-11.6V23.4h11.4v3.3h-7.4v3h6.7v3.2
        h-6.7v3h7.6L159.5,39.3L159.5,39.3L159.5,39.3z M144.8,24.9l-1.6,3c-0.6-0.5-1.8-1.3-3.8-1.3c-2.7,0-4.9,1.4-4.9,4.8
        s1.9,4.8,4.7,4.8c0.6,0,1.3-0.1,1.7-0.1v-2.9h-2.5v-3h6.1V38c-0.9,0.6-2.4,1.7-5.7,1.7c-4.7,0-8.5-2.4-8.5-8.2
        c0.1-5.9,4.3-8.4,8.9-8.4C142.4,23.1,144,24.2,144.8,24.9 M128.1,31.3c0,5.2-3.3,8.2-8.1,8.2c-4.8,0-8.1-3-8.1-8.2s3.3-8.2,8.1-8.2
        C124.8,23.1,128.1,26.1,128.1,31.3 M110.7,23.4l-3.8,15.9H103l-3.5-10.5l-3.5,10.5h-3.8l-4-15.9h4.2l2,10l3.2-10h3.8l3.1,10h0.1
        l2-10H110.7C110.7,23.4,110.7,23.4,110.7,23.4z M87,31.3c0,5.2-3.3,8.2-8.1,8.2c-4.8,0-8.1-3-8.1-8.2s3.3-8.2,8.1-8.2
        C83.6,23.1,87,26.1,87,31.3 M68,39.3h-4v-6.4h-6.7v6.4h-4V23.4h4v6.1h6.7v-6.1h4C68,23.4,68,39.3,68,39.3z M173.1,53.6V9h-134v30.3
        c0,7.9,6.4,14.3,14.3,14.3H173.1z"/>
</svg>
