<svg enable-background="new 0 0 283.46 62.36" viewBox="0 0 283.46 62.36" xmlns="http://www.w3.org/2000/svg"><path d="m0 0h283.46v62.36h-283.46z" fill="none"/><g fill="#1a437f"><path d="m55.09 43.56c.36 1.9 1.77 3.12 3.61 3.12 1.48 0 2.56-.59 2.56-1.9 0-1.25-.69-1.84-3.21-2.62-4.43-1.41-6.27-3.08-6.27-6.4 0-4.36 3.41-5.81 6.79-5.81 3.97 0 6.92 1.34 7.31 5.02l-4.43 1.12c-.16-1.71-1.44-2.46-2.79-2.46-1.25 0-2.23.56-2.23 1.8 0 1.34 1.05 1.87 3.31 2.56 4.07 1.28 6.13 2.66 6.13 6.36 0 4.2-3.41 5.74-7.51 5.74-3.81 0-6.37-1.25-7.35-4.72zm21.73 6.14v-15.46h5.38v-3.87h-15.06v3.87h5.28v15.46zm11.95-9.94c1.08-3.12 1.57-5.48 1.57-5.48h.13s.39 2.33 1.51 5.51l.79 2.16h-4.76zm6.72 9.94h4.79l-7.05-19.32h-5.51l-6.99 19.32h4.66l1.38-4.03h7.31zm11.43-3.78v-11.77h2.2c3.18 0 5.22 1.34 5.22 5.94 0 4.4-2.03 5.84-5.48 5.84h-1.94zm2.36 3.78c5.54 0 9.71-2.72 9.71-9.88 0-6.79-4.07-9.45-9.41-9.45h-7.12v19.33zm20.69 0v-15.46h5.38v-3.87h-15.06v3.87h5.28v15.46zm24.74-19.33v11.57c0 2.79-.72 4.42-3.54 4.42-2.79 0-3.51-1.64-3.51-4.39v-11.6h-4.46v12.85c0 5.21 3.7 6.85 7.96 6.85 4.29 0 7.97-1.64 7.97-6.85v-12.85zm12.7 0h-4.2v19.31h4.46v-7.67c0-2.79-.2-4.36-.2-4.36h.13s.59 1.21 1.84 2.85l6.82 9.18h4.06v-19.31h-4.46v7.83c0 2.46.1 4.1.1 4.1h-.13s-.53-1.11-1.61-2.59zm21.8 15.54v-11.77h2.2c3.18 0 5.21 1.34 5.21 5.93 0 4.39-2.03 5.84-5.47 5.84zm2.36 3.77c5.54 0 9.7-2.72 9.7-9.87 0-6.79-4.07-9.44-9.41-9.44h-7.11v19.31zm19.03-19.31v19.33h12.01v-3.87h-7.54v-15.46zm21.26 9.39c1.08-3.12 1.57-5.48 1.57-5.48h.13s.39 2.33 1.51 5.51l.79 2.16h-4.76zm6.72 9.94h4.79l-7.05-19.32h-5.51l-6.99 19.32h4.66l1.38-4.03h7.31zm11-19.33h-4.2v19.33h4.46v-7.68c0-2.79-.2-4.36-.2-4.36h.13s.59 1.21 1.84 2.85l6.82 9.18h4.07v-19.32h-4.46v7.84c0 2.46.1 4.1.1 4.1h-.13s-.53-1.12-1.61-2.59zm21.81 15.55v-11.77h2.2c3.18 0 5.21 1.34 5.21 5.94 0 4.4-2.03 5.84-5.48 5.84h-1.93zm2.37 3.78c5.54 0 9.71-2.72 9.71-9.88 0-6.79-4.07-9.45-9.41-9.45h-7.12v19.33z"/><path d="m16.44 28.33 23.43-.42v3.58l-23.43 1.12zm9.05 10.7 14.39-1.42v-3.53l-16.5 1.15zm3.53 6.36 10.85-1.63v-3.54l-12.86 1.55zm-.06 6.71 10.92-2.21v-3.54l-10.92 1.88zm-24.06-16.93-4.9 7.78v11.02l10.67 8.39 16.68-4.25v-2.85l-16.67 3.8-8.19-6.59v-8.6l3.18-5.17 5.33 9.59 16.2-2.54-6.5-11.55zm11.54-24.46 23.43 2.47v-3.52l-23.43-3.17zm.01-10.71-9.48 4.58v28.88l2.78-.2v-26.91l6.9-3.05 23.23 3.67v-2.74zm-.01 25.3 23.43.08v-3.55l-23.43-.78zm0-7.24 23.43 1.27v-3.54l-23.43-1.97z"/></g></svg>