<?xml version="1.0" encoding="UTF-8"?>
<svg id="Logo" xmlns="http://www.w3.org/2000/svg" viewBox="0 0 170.08 50.28">
  <defs>
    <style>
      .cls-1 {
        fill: #0056a8;
      }
    </style>
  </defs>
  <g id="Bildmarke">
    <path class="cls-1" d="M127.16,42.91c-2.34-2.33-4.2-5.1-5.46-8.15-1.26-3.05-1.91-6.32-1.9-9.63,0-3.3.64-6.57,1.9-9.63,1.26-3.05,3.12-5.82,5.46-8.15,4.71-4.71,11.11-7.36,17.78-7.36s13.06,2.65,17.78,7.36c2.34,2.33,4.2,5.1,5.46,8.15,1.26,3.05,1.91,6.32,1.9,9.63,0,3.3-.64,6.57-1.9,9.63-1.26,3.05-3.12,5.82-5.46,8.15-4.71,4.71-11.11,7.36-17.78,7.36s-13.06-2.65-17.78-7.36ZM128.74,8.94c-2.13,2.12-3.83,4.65-4.98,7.43-1.15,2.78-1.74,5.76-1.73,8.77,0,3.01.58,5.99,1.73,8.77,1.15,2.78,2.84,5.31,4.98,7.43,2.13,2.13,4.65,3.81,7.43,4.97,2.78,1.15,5.76,1.74,8.77,1.74s5.99-.59,8.77-1.74c2.78-1.15,5.3-2.84,7.43-4.97,2.13-2.12,3.83-4.65,4.98-7.43,1.15-2.78,1.74-5.76,1.73-8.77,0-3.01-.58-5.99-1.73-8.77-1.15-2.78-2.84-5.31-4.98-7.43-2.13-2.13-4.65-3.81-7.43-4.97-2.78-1.15-5.76-1.74-8.77-1.74s-5.99.59-8.77,1.74c-2.78,1.15-5.3,2.84-7.43,4.97ZM152.1,36.33c0-1.94-.54-3.84-1.57-5.48,1.65,1.05,3.58,1.61,5.54,1.61,1.91,0,3.78-.53,5.41-1.53,1.63-1,2.94-2.43,3.81-4.14-.77,10.12-8.9,18.18-19.05,18.85,1.76-.84,3.24-2.16,4.28-3.81,1.04-1.65,1.59-3.56,1.59-5.51h0ZM134.13,36.33c0-1.51.45-2.99,1.29-4.25.84-1.26,2.03-2.24,3.43-2.82,1.4-.58,2.94-.73,4.42-.44,1.48.3,2.85,1.02,3.92,2.09,1.07,1.07,1.8,2.43,2.09,3.92.3,1.48.14,3.02-.44,4.42-.58,1.4-1.56,2.59-2.82,3.43-1.26.84-2.74,1.29-4.25,1.29-2.03,0-3.97-.81-5.41-2.24-1.43-1.43-2.24-3.38-2.24-5.41h0ZM124.36,25.21c0-2.93.62-5.82,1.84-8.49,0,.05,0,.11,0,.16,0,1.36.27,2.7.79,3.95.52,1.25,1.28,2.39,2.24,3.35.96.96,2.1,1.72,3.35,2.24,1.25.52,2.59.79,3.95.79.15,0,.3,0,.44-.01-1.28.67-2.4,1.61-3.29,2.74s-1.54,2.44-1.9,3.84c-.36,1.4-.42,2.86-.17,4.28s.78,2.78,1.58,3.98c-2.72-1.88-4.94-4.4-6.48-7.33-1.54-2.93-2.34-6.19-2.33-9.5ZM148.41,21.97c0-2.03.81-3.97,2.24-5.41,1.43-1.43,3.38-2.24,5.41-2.24,2.03,0,3.97.81,5.41,2.24,1.43,1.43,2.24,3.38,2.24,5.41,0,2.03-.81,3.97-2.24,5.41-1.43,1.43-3.38,2.24-5.41,2.24-2.03,0-3.97-.81-5.41-2.24-1.43-1.43-2.24-3.38-2.24-5.41ZM141.77,26.01c-.15,0-.3,0-.44.01,1.91-1.01,3.46-2.59,4.43-4.52-.01.21-.02.43-.02.64,0,1.94.54,3.84,1.57,5.48-1.65-1.05-3.58-1.61-5.54-1.61ZM128.87,16.89c0-2.03.81-3.97,2.24-5.41,1.43-1.43,3.38-2.24,5.41-2.24,2.03,0,3.97.81,5.41,2.24,1.43,1.43,2.24,3.38,2.24,5.41,0,2.03-.81,3.97-2.24,5.41-1.43,1.43-3.38,2.24-5.41,2.24-2.03,0-3.97-.81-5.41-2.24-1.43-1.43-2.24-3.38-2.24-5.41ZM146.84,16.89c0-1.36-.27-2.7-.79-3.95-.52-1.25-1.28-2.39-2.24-3.35-.96-.96-2.1-1.72-3.35-2.24-1.25-.52-2.6-.79-3.95-.79-.06,0-.11,0-.17,0,2.67-1.22,5.56-1.84,8.49-1.84,3.29,0,6.53.79,9.45,2.3,2.92,1.52,5.43,3.71,7.32,6.41-1.66-1.06-3.58-1.62-5.55-1.62-1.92,0-3.8.53-5.43,1.54-1.63,1.01-2.95,2.45-3.81,4.17.01-.21.02-.43.02-.64Z"/>
  </g>
  <g id="Wortmarke">
    <path d="M9.94,11.62c-.76-.31-1.77-.62-3.03-.93-1.06-.28-1.9-.53-2.51-.76-.61-.23-1.13-.57-1.54-1.02-.42-.45-.62-1.04-.62-1.78,0-1.01.35-1.81,1.05-2.38.7-.57,1.71-.86,3.01-.86,1.03,0,2.03.14,3,.4.97.27,1.81.59,2.51.97l.61-1.74c-.7-.38-1.59-.7-2.66-.97-1.07-.27-2.23-.4-3.47-.4-1.86,0-3.34.45-4.44,1.36C.77,4.43.22,5.66.22,7.21c0,1.14.27,2.05.82,2.72s1.2,1.16,1.97,1.47c.77.31,1.79.63,3.06.96,1.06.28,1.9.53,2.5.76.6.23,1.12.56,1.53,1,.42.44.62,1.02.62,1.74,0,1.01-.36,1.8-1.08,2.35-.72.56-1.76.83-3.14.83-1.05,0-2.08-.15-3.11-.47-1.03-.31-1.94-.69-2.72-1.13l-.69,1.76c.78.44,1.74.81,2.88,1.12,1.14.3,2.33.45,3.59.45,1.93,0,3.45-.45,4.56-1.35,1.11-.9,1.67-2.12,1.67-3.65,0-1.14-.27-2.05-.81-2.71-.54-.66-1.19-1.15-1.95-1.46Z"/>
    <path d="M20.14,19.12c-.67,0-1.18-.16-1.52-.47-.34-.31-.51-.82-.51-1.54v-7.6h3.65v-1.5h-3.65v-3.43h-1.79v3.43h-2.03v1.5h2.03v7.82c0,1.11.32,1.96.96,2.54.64.58,1.51.87,2.62.87.77,0,1.49-.1,2.18-.29l-.22-1.57c-.64.16-1.21.25-1.72.25Z"/>
    <path d="M28.17,8.48c-.68.47-1.25.98-1.7,1.52v-1.98h-1.84v12.57h1.84v-8.65c.44-.57,1-1.1,1.68-1.59.68-.49,1.43-.74,2.27-.74.31.02.61.04.91.07v-1.81c-.34-.07-.65-.1-.93-.1-.8,0-1.54.24-2.22.71Z"/>
    <path d="M38.82,7.77c-1.68,0-3.07.54-4.15,1.61-1.09,1.07-1.63,2.72-1.63,4.94s.54,3.86,1.63,4.93c1.09,1.06,2.47,1.59,4.15,1.59s3.07-.53,4.15-1.59c1.09-1.06,1.63-2.7,1.63-4.93s-.54-3.87-1.63-4.94c-1.09-1.07-2.47-1.61-4.15-1.61ZM41.66,18.14c-.72.8-1.65,1.2-2.79,1.2s-2.15-.4-2.88-1.19c-.73-.79-1.09-2.07-1.09-3.84s.37-3,1.1-3.81c.74-.81,1.67-1.21,2.82-1.21s2.14.4,2.86,1.19,1.07,2.07,1.07,3.84-.36,3.02-1.08,3.82Z"/>
    <path d="M54.22,10.13c.38.43.58,1.14.58,2.13v8.33h1.81v-8.63c0-.33,0-.57-.02-.73.42-.44.94-.84,1.53-1.2.6-.36,1.23-.54,1.9-.54.62,0,1.13.21,1.52.64.39.43.59,1.14.59,2.13v8.33h1.81v-8.63c0-1.4-.34-2.45-1.02-3.14-.68-.69-1.52-1.03-2.51-1.03s-1.83.22-2.55.67c-.72.45-1.27.88-1.64,1.29-.29-.67-.71-1.16-1.26-1.48-.55-.32-1.16-.48-1.83-.48-.78,0-1.5.17-2.16.51-.65.34-1.22.74-1.69,1.18v-1.47h-1.76v12.57h1.76v-9.34c.46-.46.98-.87,1.58-1.23.6-.36,1.22-.54,1.87-.54.6,0,1.1.21,1.48.64Z"/>
    <path d="M69.11,11.38c.52-.47,1.14-.91,1.86-1.3s1.47-.59,2.25-.59c1.65,0,2.47.92,2.47,2.77v8.33h1.79v-8.63c0-1.42-.36-2.47-1.07-3.15-.71-.68-1.64-1.02-2.78-1.02-.95,0-1.81.19-2.59.56-.78.38-1.43.79-1.95,1.25v-1.59h-1.79v12.57h1.79v-9.21Z"/>
    <path d="M90.87,17.92c-.56.33-1.2.6-1.92.82-.73.22-1.46.33-2.19.33-1.34,0-2.39-.36-3.16-1.07-.77-.71-1.21-1.73-1.32-3.05h9.31v-.76c0-2.21-.52-3.82-1.57-4.84-1.05-1.02-2.35-1.53-3.92-1.53-1,0-1.92.23-2.78.69-.86.46-1.56,1.17-2.1,2.13-.54.96-.81,2.18-.81,3.65s.28,2.72.83,3.69c.56.97,1.3,1.68,2.24,2.13s1.99.67,3.15.67c.9,0,1.77-.13,2.62-.38.85-.25,1.58-.57,2.18-.94l-.56-1.54ZM83.42,10.49c.67-.75,1.57-1.13,2.7-1.13.98,0,1.82.34,2.52,1.03.7.69,1.05,1.75,1.05,3.19h-7.43c.1-1.31.48-2.34,1.15-3.09Z"/>
    <path d="M99.03,19.12c-.67,0-1.18-.16-1.52-.47s-.51-.82-.51-1.54v-7.6h3.65v-1.5h-3.65v-3.43h-1.79v3.43h-2.03v1.5h2.03v7.82c0,1.11.32,1.96.96,2.54.64.58,1.51.87,2.62.87.77,0,1.5-.1,2.18-.29l-.22-1.57c-.64.16-1.21.25-1.72.25Z"/>
    <polygon points="113.22 19.07 105.52 19.07 112.97 9.44 112.97 8.02 103.42 8.02 103.42 9.51 110.74 9.51 103.25 19.14 103.25 20.59 113.22 20.59 113.22 19.07"/>
    <path d="M62.07,33.93c.75-.29,1.39-.79,1.92-1.5.52-.7.79-1.58.79-2.63,0-1.56-.47-2.71-1.42-3.47-.95-.76-2.18-1.14-3.68-1.14h-7.22v18.27h7.76c.92,0,1.77-.19,2.55-.56.79-.38,1.42-.94,1.9-1.68.48-.74.72-1.66.72-2.74,0-1.21-.32-2.2-.97-2.97-.65-.77-1.43-1.29-2.35-1.57ZM54.39,26.78h4.89c1.1,0,1.96.26,2.6.77.64.52.96,1.31.96,2.37s-.33,1.9-.99,2.49c-.66.6-1.53.9-2.62.9h-4.84v-6.53ZM62.46,40.97c-.65.56-1.49.85-2.54.85h-5.53v-6.88h5.35c1.08,0,1.96.3,2.65.91.69.61,1.03,1.47,1.03,2.6s-.32,1.95-.97,2.52Z"/>
    <path d="M73.39,30.66c-1,0-1.93.23-2.79.69-.86.46-1.56,1.17-2.1,2.14-.54.97-.81,2.19-.81,3.66s.28,2.72.84,3.7c.56.97,1.31,1.69,2.25,2.14.94.45,1.99.68,3.16.68.9,0,1.78-.13,2.63-.38.85-.25,1.58-.57,2.19-.95l-.56-1.55c-.56.33-1.2.6-1.93.82-.73.22-1.46.33-2.2.33-1.34,0-2.4-.36-3.17-1.07-.77-.71-1.21-1.73-1.33-3.06h9.33v-.76c0-2.21-.52-3.83-1.57-4.85-1.05-1.02-2.36-1.53-3.93-1.53ZM69.55,36.43c.1-1.31.48-2.34,1.15-3.09.67-.75,1.57-1.13,2.7-1.13.98,0,1.83.34,2.53,1.03.7.69,1.06,1.75,1.06,3.19h-7.44Z"/>
    <path d="M85.46,31.33c-.68.47-1.25.98-1.71,1.52v-1.99h-1.84v12.6h1.84v-8.67c.44-.57,1-1.11,1.68-1.6.68-.49,1.44-.74,2.27-.74.31.02.61.04.91.07v-1.82c-.34-.07-.66-.1-.93-.1-.8,0-1.54.24-2.22.71Z"/>
    <path d="M93.03,40.34v-15.15h-1.87v15.25c0,1.08.26,1.9.79,2.44.52.55,1.37.83,2.53.85l.17-1.47c-.49-.06-.88-.25-1.18-.56-.29-.31-.44-.76-.44-1.35Z"/>
    <path d="M98.2,26.02c-.33,0-.6.1-.82.29-.22.2-.33.5-.33.91s.11.71.33.91c.22.2.49.29.82.29s.63-.1.85-.29c.22-.2.33-.5.33-.91s-.11-.71-.33-.91c-.22-.2-.5-.29-.85-.29Z"/>
    <rect x="97.29" y="30.86" width="1.84" height="12.6"/>
    <path d="M112.16,31.66c-.71-.68-1.64-1.02-2.79-1.02-.95,0-1.81.19-2.59.56-.78.38-1.43.79-1.95,1.25v-1.6h-1.79v12.6h1.79v-9.23c.52-.47,1.15-.91,1.87-1.3.72-.39,1.47-.59,2.26-.59,1.65,0,2.48.93,2.48,2.78v8.35h1.79v-8.64c0-1.42-.36-2.48-1.07-3.16Z"/>
  </g>
</svg>