<svg width="174" height="28" viewBox="0 0 174 28" fill="none" xmlns="http://www.w3.org/2000/svg">
<path d="M159.341 3.01878e-07C155.545 -0.000762371 151.904 1.44363 149.219 4.01548C146.534 6.58733 145.025 10.076 145.023 13.7142H173.652C173.651 10.0772 172.143 6.58951 169.459 4.01785C166.776 1.44619 163.136 0.00101636 159.341 3.01878e-07Z" fill="#FFDA00"/>
<path d="M159.341 27.4328C157.461 27.4332 155.6 27.0787 153.863 26.3895C152.126 25.7002 150.547 24.6899 149.218 23.416C147.888 22.1421 146.833 20.6298 146.114 18.9652C145.394 17.3007 145.024 15.5166 145.023 13.7148H173.652C173.652 17.3525 172.144 20.8411 169.461 23.4136C166.777 25.9861 163.137 27.4318 159.341 27.4328Z" fill="#2071B5"/>
<path d="M41.5205 7.20801H28.2305V10.5623H32.9635V22.8638H37.2415V10.5632H41.5205V7.20801Z" fill="#4E4B48"/>
<path d="M41.8789 7.20801V10.5623H46.1589V22.8638H50.4369V10.5632H55.1689V7.20897L41.8789 7.20801Z" fill="#4E4B48"/>
<path d="M85.325 22.8638V7.20801H81.241V16.576L73.96 7.20801H69.875V22.8638H73.958V13.6089L81.239 22.8638H85.325Z" fill="#4E4B48"/>
<path d="M56.0938 22.8638H68.1738V19.5096H60.3738V16.4265H66.9858V13.0722H60.3727V10.5633H68.1728V7.20898H56.0938V22.8638Z" fill="#4E4B48"/>
<path d="M87.2539 22.8638H91.5339V16.5223H98.4399V13.1681H91.5339V10.5633H99.7239V7.20898H87.2539V22.8638Z" fill="#4E4B48"/>
<path d="M13.478 7.20801L8.827 18.2148H8.79L4.137 7.20801H0L6.7 22.8638H10.912L17.612 7.20801H13.478Z" fill="#4E4B48"/>
<path d="M127.844 22.8638H139.658V19.3898H132.123V7.20801H127.845L127.844 22.8638Z" fill="#4E4B48"/>
<path d="M115.219 22.8638H127.033V19.3898H119.498V7.20801H115.219V22.8638Z" fill="#4E4B48"/>
<path d="M110.868 22.8638H115.005L108.195 7.20801H104.005L97.1953 22.8638H101.332L102.505 20.0683H109.695L110.868 22.8638ZM103.847 16.8817L106.085 11.5388H106.113L108.356 16.8855L103.847 16.8817Z" fill="#4E4B48"/>
<path d="M28.5295 22.8638H32.6665L25.8565 7.20801H21.6655L14.8555 22.8638H18.9925L20.1655 20.0683H27.3555L28.5295 22.8638ZM21.5105 16.8817L23.7465 11.5388H23.7745L26.0205 16.8817H21.5105Z" fill="#4E4B48"/>
</svg>
