<svg width="260" height="140" viewBox="0 0 260 140" xmlns="http://www.w3.org/2000/svg">
    <path d="M39.347 77.459a1.452 1.452 0 0 0 1.372 1.043h1.194c.56.01 1.071-.317 1.29-.826l13.35-33.743h.37l13.502 33.743a1.29 1.29 0 0 0 1.29.826h1.208a1.452 1.452 0 0 0 1.372-1.043L88.537 27.4c.146-.426.07-.895-.206-1.254a1.379 1.379 0 0 0-1.166-.535h-6.943a1.534 1.534 0 0 0-1.372 1.044l-7.698 29.717h-.301L58.79 25.68a1.222 1.222 0 0 0-1.29-.813h-1.372a1.208 1.208 0 0 0-1.276.813L42.846 56.373h-.302l-7.848-29.717a1.534 1.534 0 0 0-1.372-1.044h-6.93a1.379 1.379 0 0 0-1.166.535 1.341 1.341 0 0 0-.206 1.254L39.278 77.46h.07zm62.28-1.125c0 .748.614 1.355 1.372 1.355h18.263c9.193 0 16.465-6.03 16.465-14.378 0-6.856-5.804-10.84-9.81-12.196 3.553-1.64 8.3-6.111 8.3-11.843 0-7.82-6.942-13.782-15.916-13.782h-17.247c-.758 0-1.372.607-1.372 1.355v49.516l-.055-.027zm9.728-28.823V34.475h8.068a6.19 6.19 0 0 1 4.668 1.74 6.03 6.03 0 0 1 1.822 4.588 6.336 6.336 0 0 1-1.755 4.78 6.502 6.502 0 0 1-4.735 1.996l-8.068-.068zm0 21.451V55.71h8.233c3.924 0 7.697 2.71 7.697 6.478a6.597 6.597 0 0 1-1.944 4.807 6.767 6.767 0 0 1-4.848 1.968h-9.138zm38.117 7.074c-.118.417-.028.865.243 1.205.271.34.691.532 1.13.516h6.778a1.436 1.436 0 0 0 1.372-1.125l4.377-28.227h.233l13.35 29.27c.217.506.721.832 1.277.827h1.372a1.29 1.29 0 0 0 1.29-.826l13.185-29.27h.234l4.445 28.226a1.629 1.629 0 0 0 1.441 1.125h6.86a1.38 1.38 0 0 0 1.13-.516c.271-.34.361-.788.243-1.205l-8.905-50.058a1.258 1.258 0 0 0-1.372-1.111h-1.208a1.292 1.292 0 0 0-1.276.745l-16.589 35.152h-.233L162.26 25.612a1.375 1.375 0 0 0-1.29-.745h-1.207a1.272 1.272 0 0 0-1.372 1.111l-8.974 50.058h.055zm73.12-3.645c.015 3.369 2.777 6.096 6.188 6.111 2.527.017 4.814-1.476 5.788-3.779A6.097 6.097 0 0 0 233.226 68a6.287 6.287 0 0 0-6.808-1.326c-2.331.963-3.843 3.221-3.826 5.717zM39.394 114.82c.007.114.11.204.232.204h2.735a2.43 2.43 0 0 0 1.749-.539c.479-.396.761-.96.781-1.558-.04-.814-.618-1.518-1.45-1.764.934-.426 1.4-1.421 1.101-2.351-.298-.93-1.274-1.52-2.304-1.395H39.64c-.123 0-.225.09-.232.205v7.197h-.014zm1.19-4.092v-2.288h1.572c.324-.02.641.093.87.309.227.216.344.513.32.816.023.306-.093.606-.32.828a1.204 1.204 0 0 1-.87.335h-1.572zm0 3.299V111.7h1.6c.7-.004 1.29.487 1.367 1.138.008.315-.122.62-.36.844a1.29 1.29 0 0 1-.898.345h-1.71zm6.837.792c0 .113.098.205.22.205h4.649c.12 0 .218-.092.218-.205v-.6c0-.113-.098-.205-.218-.205H48.61v-2.34h3.104c.124 0 .226-.09.233-.204v-.601a.239.239 0 0 0-.233-.217h-3.104v-2.212h3.679c.12 0 .218-.092.218-.205v-.613c0-.113-.098-.205-.218-.205h-4.65c-.12 0-.219.092-.219.205v7.197zm7.563 0c0 .113.098.205.218.205h.753a.225.225 0 0 0 .218-.205v-2.774h1.764l1.546 2.877a.18.18 0 0 0 .178.102h.902c.085.01.169-.03.213-.098a.193.193 0 0 0-.008-.222l-1.6-2.748c1.006-.336 1.69-1.214 1.723-2.212a2.267 2.267 0 0 0-.747-1.655 2.597 2.597 0 0 0-1.783-.672h-3.159c-.12 0-.218.092-.218.205v7.197zm1.217-3.707v-2.634h2.065c.755 0 1.367.573 1.367 1.279-.04.69-.63 1.24-1.367 1.278l-2.065.077zm7.289 3.707c0 .113.098.205.218.205h4.103a.227.227 0 0 0 .155-.06.198.198 0 0 0 .064-.145v-.6c0-.113-.098-.205-.219-.205h-3.077v-6.392c0-.113-.098-.205-.219-.205h-.766c-.12 0-.218.092-.218.205v7.197h-.041zm6.591 0c.007.11.1.199.219.205h.861c.121 0 .22-.092.22-.205v-7.197c0-.113-.099-.205-.22-.205h-.765a.225.225 0 0 0-.22.205v7.197h-.095zm4.226 0c0 .113.098.205.218.205h.739c.12 0 .219-.092.219-.205v-5.293l5.046 5.613h.3c.122 0 .22-.092.22-.205v-7.312c0-.113-.098-.205-.22-.205h-.738c-.12 0-.219.092-.219.205v5.113l-5.046-5.446h-.287a.214.214 0 0 0-.154.052.186.186 0 0 0-.065.14v7.313l-.013.025zm9.572-3.017h2.517a.214.214 0 0 0 .153-.051.186.186 0 0 0 .065-.14v-.46a.185.185 0 0 0-.06-.15.213.213 0 0 0-.158-.055h-2.517a.213.213 0 0 0-.159.055.185.185 0 0 0-.06.15v.447c0 .053.024.104.065.14a.214.214 0 0 0 .154.051v.013zm4.581 2.98a.182.182 0 0 0 .041.175c.044.048.11.074.178.067h.752c.096 0 .206-.077.206-.153l.847-4.859 2.106 5a.205.205 0 0 0 .192.127h.26a.205.205 0 0 0 .191-.128l2.092-4.999.848 4.859c.038.09.13.15.233.153h.738a.198.198 0 0 0 .178-.066.17.17 0 0 0 .027-.177l-1.367-7.313a.258.258 0 0 0-.219-.153h-.178a.235.235 0 0 0-.205.115l-2.42 5.548-2.435-5.548s-.123-.115-.191-.115h-.191a.243.243 0 0 0-.206.153l-1.436 7.313h-.04zm11.42 0c0 .112.097.204.218.204h.766a.225.225 0 0 0 .219-.205v-7.198a.225.225 0 0 0-.22-.204h-.765c-.12 0-.219.091-.219.204v7.198zm5.346 0c0 .112.098.204.219.204h.766a.225.225 0 0 0 .219-.205v-6.392h1.887c.123 0 .225-.09.232-.205v-.614c-.007-.115-.109-.204-.232-.204h-4.992c-.12 0-.218.091-.218.204v.614c0 .113.098.205.218.205h1.901v6.392zm6.934 0c.006.11.1.197.218.204h.766c.121 0 .219-.092.219-.205v-6.392h1.9c.122 0 .22-.092.22-.205v-.614c0-.113-.098-.204-.22-.204h-4.99c-.124 0-.226.09-.233.204v.614c.007.115.11.205.232.205h1.915v6.392h-.027zm5.36 0c0 .112.098.204.219.204h4.65c.12 0 .218-.092.218-.205v-.6c0-.114-.098-.205-.218-.205h-3.679v-2.34h3.05c.12 0 .218-.092.218-.205v-.6c0-.116-.095-.211-.218-.218h-3.105v-2.212h3.679c.12 0 .219-.091.219-.204v-.614c0-.113-.098-.204-.22-.204h-4.649c-.12 0-.218.091-.218.204v7.198h.054zm10.01 0a.182.182 0 0 0 .04.175c.045.048.112.074.18.067h.751a.216.216 0 0 0 .206-.153l.834-4.859 2.106 5a.19.19 0 0 0 .191.127h.205a.22.22 0 0 0 .205-.128l2.093-4.999.861 4.859c.038.09.13.15.233.153h.752a.198.198 0 0 0 .177-.066.17.17 0 0 0 .028-.177l-1.368-7.313a.258.258 0 0 0-.218-.153h-.178a.235.235 0 0 0-.205.115l-2.42 5.548-2.435-5.548s-.123-.115-.191-.115h-.192a.23.23 0 0 0-.205.153l-1.367 7.313h-.083zm11.42 0c0 .112.097.204.218.204h2.735a2.43 2.43 0 0 0 1.748-.539c.48-.397.762-.96.782-1.558-.04-.814-.619-1.519-1.45-1.764.697-.345 1.153-1.004 1.204-1.74a2.032 2.032 0 0 0-.749-1.49 2.33 2.33 0 0 0-1.672-.516h-2.598c-.12 0-.219.091-.219.204v7.198zm1.175-4.092v-2.289h1.573a1.18 1.18 0 0 1 .873.31c.23.214.35.512.33.815.02.308-.1.608-.328.83a1.22 1.22 0 0 1-.875.334h-1.573zm0 3.298v-2.326h1.6c.7-.004 1.29.487 1.368 1.137a1.11 1.11 0 0 1-.35.844c-.236.224-.559.35-.895.345h-1.723zm6.838.793c.007.11.1.198.219.205h.765c.124 0 .226-.09.233-.205v-3.145h4.253v3.145c0 .113.098.205.219.205h.766a.225.225 0 0 0 .218-.205v-7.198a.225.225 0 0 0-.218-.204h-.766c-.121 0-.22.091-.22.204v3.03h-4.252v-3.03c-.007-.115-.11-.205-.233-.204h-.765a.225.225 0 0 0-.22.204v7.198zM40.235 99.252a.23.23 0 0 0 .206.152h.192a.206.206 0 0 0 .193-.127l2.019-5.371h.068l2.047 5.37c.04.074.118.123.206.128h.179a.217.217 0 0 0 .206-.153l2.212-7.267a.18.18 0 0 0-.021-.188.213.213 0 0 0-.186-.08h-.783a.217.217 0 0 0-.206.153l-1.373 4.964-1.923-5.091a.223.223 0 0 0-.206-.115h-.206a.193.193 0 0 0-.193.115l-1.91 5.09-1.373-4.963a.26.26 0 0 0-.22-.153h-.851a.227.227 0 0 0-.186.08.192.192 0 0 0-.034.188l2.212 7.267h-.07zm9.093-3.743c0 1.577 1.026 2.998 2.599 3.6 1.572.602 3.38.266 4.582-.85 1.201-1.117 1.557-2.794.902-4.249-.655-1.455-2.191-2.4-3.893-2.395-1.12-.018-2.198.387-2.988 1.122-.79.734-1.224 1.735-1.202 2.772zm1.168 0c0-1.139.741-2.165 1.877-2.6 1.136-.434 2.443-.191 3.31.616.868.807 1.124 2.019.65 3.07-.475 1.05-1.586 1.732-2.815 1.727-1.665-.02-3.007-1.27-3.022-2.813zm9.712 3.577c.007.114.11.204.233.203h.77c.121 0 .22-.09.22-.203v-3.131h4.272v3.13c0 .113.098.204.22.204h.769c.121 0 .22-.09.22-.203V91.92c0-.112-.099-.204-.22-.204h-.77c-.121 0-.22.092-.22.204v3.017H61.43V91.92a.196.196 0 0 0-.064-.144.229.229 0 0 0-.155-.06h-.77c-.123 0-.226.09-.233.204v7.166zm9.753 0c0 .054.023.106.064.144.042.038.097.06.156.06h.728c.121 0 .22-.092.22-.204v-5.27l5.068 5.588h.303c.121 0 .22-.091.22-.204v-7.28c0-.112-.099-.204-.22-.204h-.742c-.122 0-.22.092-.22.204v5.091l-5.069-5.422h-.288a.216.216 0 0 0-.155.051.185.185 0 0 0-.065.14v7.306zm9.74-2.622c0 1.624 1.42 2.94 3.172 2.94 1.753 0 3.174-1.316 3.174-2.94V91.92c-.007-.11-.102-.197-.22-.204h-.81c-.122 0-.22.092-.22.204v4.493c0 .998-.874 1.807-1.951 1.807s-1.95-.809-1.95-1.807v-4.467c0-.113-.1-.204-.22-.204h-.783a.229.229 0 0 0-.156.06.196.196 0 0 0-.064.144v4.543l.027-.025zM89 99.086c.007.114.11.204.233.203h.728c.122 0 .22-.09.22-.203v-5.27l5.07 5.588h.301c.122 0 .22-.091.22-.204v-7.28c0-.112-.098-.204-.22-.204h-.741c-.122 0-.22.092-.22.204v5.091l-5.07-5.422h-.288a.23.23 0 0 0-.16.05.198.198 0 0 0-.073.141v7.306zm9.272-3.564c0 1.026.445 2.009 1.236 2.727a4.301 4.301 0 0 0 2.968 1.091 6.244 6.244 0 0 0 2.898-.712.307.307 0 0 0 .082-.179v-2.57c0-.113-.098-.204-.22-.204h-2.115a.23.23 0 0 0-.164.055.197.197 0 0 0-.07.148v.637c.004.054.03.104.075.14a.23.23 0 0 0 .16.05h1.126v1.273c-.551.239-1.15.365-1.759.37-1.593-.1-2.831-1.327-2.831-2.807s1.238-2.707 2.831-2.806c.738.02 1.443.281 1.992.738.11.089.206.102.302 0l.522-.51a.186.186 0 0 0 .074-.146.186.186 0 0 0-.074-.146c-1.237-1.029-3.012-1.288-4.531-.66-1.52.626-2.499 2.021-2.502 3.562v-.051zm9.423 3.03a3.989 3.989 0 0 0 2.5.852c.642.056 1.28-.13 1.771-.515.492-.386.794-.939.84-1.534 0-1.273-1.154-1.91-2.514-2.418-.976-.37-1.484-.751-1.484-1.375 0-.395.344-.967 1.374-.967a3.927 3.927 0 0 1 1.58.534c.066.045.152.06.232.04a.27.27 0 0 0 .18-.142l.288-.407a.24.24 0 0 0 .053-.198.254.254 0 0 0-.122-.171 4.19 4.19 0 0 0-2.156-.636 2.407 2.407 0 0 0-1.757.477c-.488.38-.783.931-.812 1.52 0 1.274.934 1.834 2.13 2.292 1.194.458 1.771.853 1.771 1.502s-.522 1.005-1.373 1.005a3.693 3.693 0 0 1-1.869-.738.262.262 0 0 0-.212-.05.245.245 0 0 0-.172.126c-.11.153-.206.306-.316.446a.228.228 0 0 0-.046.195.244.244 0 0 0 .128.161h-.014zm7.528.534c0 .112.099.203.22.203h2.747a2.454 2.454 0 0 0 1.776-.553c.483-.406.76-.98.766-1.585-.04-.81-.622-1.512-1.457-1.756.938-.424 1.406-1.415 1.106-2.34-.3-.926-1.28-1.514-2.314-1.39h-2.624c-.121 0-.22.092-.22.204v7.216zm1.195-4.073v-2.278h1.566c.326-.02.644.093.873.307a1 1 0 0 1 .322.813c.024.304-.093.603-.32.824-.228.22-.546.342-.875.334h-1.566zm0 3.284V95.98h1.566c.704-.004 1.297.485 1.374 1.133.007.314-.123.617-.361.84a1.302 1.302 0 0 1-.903.344h-1.676zm5.99.992h.741a.275.275 0 0 0 .261-.165c.234-.496.481-.98.715-1.476h3.818l.728 1.476a.261.261 0 0 0 .261.165h.742a.211.211 0 0 0 .184-.088.179.179 0 0 0 .008-.192l-3.557-7.28a.277.277 0 0 0-.193-.114h-.123a.25.25 0 0 0-.193.114l-3.585 7.28a.179.179 0 0 0 .008.192c.04.058.11.092.184.088zm2.17-2.545 1.373-2.966 1.374 2.966h-2.747zm6.868-.255c0 1.624 1.42 2.94 3.173 2.94 1.753 0 3.173-1.316 3.173-2.94v-4.543c-.006-.11-.1-.198-.22-.204h-.782c-.122 0-.22.091-.22.204v4.492c0 .999-.873 1.808-1.95 1.808-1.078 0-1.951-.81-1.951-1.808v-4.467c0-.112-.099-.204-.22-.204h-.728c-.121 0-.22.092-.22.204v4.544l-.055-.026zm8.723-.942c0 1.026.445 2.01 1.236 2.728a4.301 4.301 0 0 0 2.967 1.09 6.244 6.244 0 0 0 2.899-.712.335.335 0 0 0 .096-.178v-2.622c0-.108-.09-.197-.206-.204h-2.13c-.12 0-.22.091-.22.204v.636c.008.108.104.191.22.191h1.14v1.273c-.544.24-1.14.366-1.744.37-1.594-.1-2.831-1.327-2.831-2.807s1.237-2.707 2.831-2.807c.734.02 1.435.282 1.978.738.124.09.22.102.303 0l.535-.509a.205.205 0 0 0 0-.292c-1.237-1.038-3.018-1.302-4.542-.674-1.525.628-2.507 2.03-2.505 3.575h-.027zm9.918 3.564c0 .113.098.204.22.204h4.67c.121 0 .22-.091.22-.204v-.598c0-.112-.099-.204-.22-.204h-3.695V95.98h3.118c.121 0 .22-.091.22-.203v-.599c0-.114-.096-.21-.22-.216h-3.118V92.76h3.695c.121 0 .22-.091.22-.203v-.611c0-.113-.099-.204-.22-.204h-4.67c-.122 0-.22.091-.22.204v7.165zm7.239-.534a3.989 3.989 0 0 0 2.5.852c.641.057 1.28-.129 1.771-.515.491-.385.794-.939.839-1.534 0-1.273-1.154-1.909-2.514-2.418-.961-.37-1.483-.75-1.483-1.375 0-.394.343-.967 1.373-.967a3.84 3.84 0 0 1 1.58.535c.067.045.152.06.232.04a.27.27 0 0 0 .18-.142l.289-.407a.24.24 0 0 0 .053-.199.254.254 0 0 0-.122-.17 4.19 4.19 0 0 0-2.157-.637 2.392 2.392 0 0 0-1.752.478c-.486.38-.777.932-.803 1.52 0 1.273.92 1.833 2.116 2.291 1.195.458 1.772.853 1.772 1.502a1.073 1.073 0 0 1-.447.785 1.251 1.251 0 0 1-.927.22 3.694 3.694 0 0 1-1.882-.738.262.262 0 0 0-.213-.05.245.245 0 0 0-.171.127l-.303.445a.223.223 0 0 0-.092.178c0 .07.034.135.092.179h.069zm7.528.534c0 .113.098.204.22.204h4.67c.121 0 .22-.091.22-.204v-.598c0-.112-.099-.204-.22-.204h-3.681V95.98h3.118c.121 0 .22-.091.22-.203v-.599c0-.114-.097-.21-.22-.216h-3.118V92.76h3.68c.122 0 .22-.091.22-.203v-.611c0-.113-.098-.204-.22-.204h-4.67c-.12 0-.22.091-.22.204v7.165zm7.596 0c0 .113.098.204.22.204h4.12c.122 0 .22-.091.22-.204v-.598c0-.112-.098-.204-.22-.204h-3.172v-6.363c0-.113-.099-.204-.22-.204h-.77c-.12 0-.22.091-.22.204v7.165h.042zm6.621 0c0 .113.099.204.22.204h4.12c.122 0 .22-.091.22-.204v-.598c0-.112-.098-.204-.22-.204h-3.172v-6.363c0-.113-.099-.204-.22-.204h-.77c-.12 0-.22.091-.22.204v7.165h.042zm6.443-.534c.699.556 1.592.858 2.513.852a2.518 2.518 0 0 0 1.762-.52c.489-.385.79-.936.835-1.529 0-1.273-1.154-1.909-2.514-2.418-.962-.37-1.484-.75-1.484-1.375 0-.394.344-.967 1.374-.967.56.064 1.095.247 1.566.535.067.045.152.06.232.04a.27.27 0 0 0 .18-.142l.288-.407a.24.24 0 0 0 .053-.199.254.254 0 0 0-.121-.17 4.132 4.132 0 0 0-2.157-.637 2.406 2.406 0 0 0-1.748.483 2.06 2.06 0 0 0-.807 1.515c0 1.273.934 1.833 2.116 2.291 1.18.458 1.772.853 1.772 1.502a1.073 1.073 0 0 1-.447.785 1.251 1.251 0 0 1-.927.22 3.578 3.578 0 0 1-1.868-.738.276.276 0 0 0-.22-.05.26.26 0 0 0-.179.127l-.302.445a.223.223 0 0 0-.092.178c0 .07.034.135.092.179h.083zm6.868-3.042c-.023 1.041.415 2.046 1.21 2.781.797.736 1.883 1.138 3.007 1.113a4.214 4.214 0 0 0 2.844-1.056.197.197 0 0 0 .067-.146.197.197 0 0 0-.067-.147l-.536-.483a.218.218 0 0 0-.275 0c-.558.447-1.268.7-2.005.712-1.594-.1-2.832-1.326-2.832-2.806s1.238-2.707 2.832-2.806a3.29 3.29 0 0 1 2.019.725c.11.093.206.093.288 0l.522-.496a.197.197 0 0 0 .067-.147.197.197 0 0 0-.067-.146 4.31 4.31 0 0 0-2.83-1.006 4.38 4.38 0 0 0-2.98 1.137c-.792.73-1.237 1.723-1.237 2.758l-.027.013zm9.464 3.576c0 .113.099.204.22.204h.77c.12 0 .22-.091.22-.204v-3.13h4.271v3.13c0 .113.099.204.22.204h.77c.12 0 .22-.091.22-.204v-7.165c0-.113-.1-.204-.22-.204h-.77c-.121 0-.22.091-.22.204v3.016h-4.176v-3.016c0-.113-.098-.204-.22-.204h-.769c-.121 0-.22.091-.22.204v7.165h-.096zm8.902.204h.742a.275.275 0 0 0 .26-.166c.234-.496.481-.98.715-1.476h3.819l.728 1.476a.261.261 0 0 0 .26.166h.743a.211.211 0 0 0 .184-.088.179.179 0 0 0 .008-.192l-3.558-7.28a.279.279 0 0 0-.206-.115h-.11a.307.307 0 0 0-.206.115l-3.571 7.28a.168.168 0 0 0-.007.2.199.199 0 0 0 .199.08zm2.17-2.546 1.374-2.965 1.374 2.965h-2.748zm7.294 2.368c0 .112.099.203.22.203h.77c.118-.006.212-.094.22-.203v-2.851h3.117c.122 0 .22-.092.22-.204v-.585c0-.115-.096-.21-.22-.217h-3.118v-2.545h3.71c.12 0 .219-.091.219-.204v-.61c0-.113-.099-.205-.22-.205h-4.67c-.122 0-.22.092-.22.204v7.166l-.028.05zm8.874 0c.007.11.102.197.22.203h.77c.12 0 .22-.09.22-.203v-6.364h1.908c.122 0 .22-.091.22-.204v-.61c0-.113-.098-.204-.22-.204h-5.013c-.124 0-.227.089-.234.203v.611c.007.115.11.204.234.204h1.895v6.364z" fill="#003A70" fill-rule="evenodd"/>
</svg>
